# xmcd
#
# Track frame offsets:
#	150
#	20114
#	34012
#	48797
#	66960
#	85829
#	99856
#	119820
#	149029
#	167941
#	191319
#
# Disc length: 2668 seconds
#
# Revision: 1
# Processed by: cddbd v1.5.2PL0 Copyright (c) Steve Scherf et al.
# Submitted via: EasyCDDAExtractor 16.0.8.1
#
DISCID=990a6a0b
DTITLE=The Ramblers - Bad Boys Of Blues
DYEAR=1900
DGENRE=Blues
TTITLE0=Sex Boogie
TTITLE1=Burn Out
TTITLE2=Hey Kitty Kitty
TTITLE3=Black Sun
TTITLE4=The Country Foot Stomping Song
TTITLE5=When The Guitar's Playin
TTITLE6=C'est En Famille
TTITLE7=Struggle
TTITLE8=La Chanson Country … Faire Taper Du Pied (C'est De Ta Faute)
TTITLE9=Living In A Dreamland
TTITLE10=Dronotone
EXTD=
EXTT0=
EXTT1=
EXTT2=
EXTT3=
EXTT4=
EXTT5=
EXTT6=
EXTT7=
EXTT8=
EXTT9=
EXTT10=
PLAYORDER=
